<?xml version="1.0" encoding="utf-8"?>
<!-- Generator: Adobe Illustrator 23.1.1, SVG Export Plug-In . SVG Version: 6.00 Build 0)  -->
<svg version="1.1" id="Calque_1" xmlns="http://www.w3.org/2000/svg" xmlns:xlink="http://www.w3.org/1999/xlink" x="0px" y="0px"
	 viewBox="0 0 70 70" style="enable-background:new 0 0 70 70;" xml:space="preserve">
<style type="text/css">
	.st0{fill:#5BF4C1;}
	.st1{fill:#FFFFFF;}
	.st2{fill:#4F280E;}
	.st3{fill:#723F1C;}
	.st4{fill:#FFFFFF;stroke:#1D1D1B;stroke-width:1.4727;stroke-miterlimit:10;}
	.st5{fill:none;stroke:#000000;stroke-width:1.4727;}
	.st6{fill:#1D1D1B;}
	.st7{fill:#1D1D1B;stroke:#AAAAAA;stroke-width:2.0923;stroke-miterlimit:10;}
	.st8{fill:#FFFFFF;stroke:#1D1D1B;stroke-width:4.1662;}
	.st9{fill:#5BF4C1;stroke:#1D1D1B;stroke-width:4.1662;}
	.st10{fill:#FFFFFF;stroke:#1D1D1B;stroke-width:1.4058;}
	.st11{fill:#5BF4C1;stroke:#1D1D1B;stroke-width:1.4058;}
	.st12{fill:none;stroke:#000000;stroke-width:15.6249;}
	.st13{fill:none;stroke:#000000;stroke-width:14.5284;}
	.st14{fill:#FFFFFF;stroke:#000000;stroke-width:15.6249;}
	.st15{fill:none;stroke:#000000;stroke-width:3.9697;}
	.st16{fill:none;stroke:#000000;stroke-width:3.6912;}
	.st17{fill:#FFFFFF;stroke:#1D1D1B;stroke-width:4.4646;stroke-miterlimit:10;}
	.st18{fill:none;stroke:#000000;stroke-width:4.3077;}
	.st19{fill:none;stroke:#000000;stroke-width:4.0054;}
	.st20{fill:#FFFFFF;stroke:#1D1D1B;stroke-width:3.8315;stroke-miterlimit:10;}
	.st21{fill:#FFFFFF;stroke:#1D1D1B;stroke-width:3.9796;stroke-miterlimit:10;}
	.st22{fill:none;stroke:#5BF4C1;stroke-width:1.9109;stroke-miterlimit:10;}
	.st23{fill:none;stroke:#5BF4C1;stroke-width:1.3063;stroke-miterlimit:10;}
	.st24{fill:none;stroke:#1D1D1B;stroke-width:0.9707;stroke-miterlimit:10;}
	.st25{fill:none;stroke:#1D1D1B;stroke-width:1.5486;stroke-miterlimit:10;}
	.st26{fill:#1D1D1B;stroke:#1D1D1B;stroke-width:5.9245;stroke-miterlimit:10;}
	.st27{fill:#FFFFFF;stroke:#1D1D1B;stroke-width:7.6936;stroke-miterlimit:10;}
	.st28{fill:#FFFFFF;stroke:#1D1D1B;stroke-width:7.9909;stroke-miterlimit:10;}
	.st29{fill:none;stroke:#5BF4C1;stroke-width:2;stroke-miterlimit:10;}
	.st30{fill:#BABABA;}
	.st31{fill-rule:evenodd;clip-rule:evenodd;fill:#FFFFFF;}
	.st32{fill-rule:evenodd;clip-rule:evenodd;fill:#221E1B;}
	.st33{fill:none;stroke:#1D1D1B;stroke-width:2.152;stroke-miterlimit:10;}
	.st34{fill:none;stroke:#FFFFFF;stroke-width:1.3572;stroke-miterlimit:10;}
	.st35{fill:none;stroke:#1D1D1B;stroke-width:1.2856;stroke-miterlimit:10;}
	.st36{fill:none;stroke:#FFFFFF;stroke-width:0.6924;stroke-miterlimit:10;}
	.st37{fill:#FFFFFF;stroke:#1D1D1B;stroke-width:2;stroke-miterlimit:10;}
	.st38{fill:none;stroke:#000000;stroke-width:2;}
	.st39{fill:none;stroke:#1D1D1B;stroke-width:1.7586;stroke-miterlimit:10;}
	.st40{fill:none;stroke:#1D1D1B;stroke-width:2;stroke-miterlimit:10;}
	.st41{fill:none;stroke:#FFFFFF;stroke-width:0.5312;stroke-miterlimit:10;}
	.st42{fill:#99613A;}
	.st43{fill:none;stroke:#1D1D1B;stroke-width:1.2808;stroke-miterlimit:10;}
	.st44{fill:none;stroke:#FFFFFF;stroke-width:0.5726;stroke-miterlimit:10;}
	.st45{fill:none;stroke:#1D1D1B;stroke-width:1.587;stroke-miterlimit:10;}
	.st46{fill:none;stroke:#FFFFFF;stroke-width:0.6838;stroke-miterlimit:10;}
	.st47{fill:#FFFFFF;stroke:#1D1D1B;stroke-width:2.5736;stroke-miterlimit:10;}
	.st48{fill:none;stroke:#000000;stroke-width:2.5736;}
	.st49{fill:#FFFFFF;stroke:#1D1D1B;stroke-width:2.0481;stroke-miterlimit:10;}
	.st50{fill:none;stroke:#000000;stroke-width:2.0481;}
	.st51{fill:#FFFFFF;stroke:#1D1D1B;stroke-width:2.2091;stroke-miterlimit:10;}
	.st52{fill:none;stroke:#000000;stroke-width:2.2091;}
	.st53{fill:none;stroke:#1D1D1B;stroke-width:1.9952;}
	.st54{fill:none;stroke:#1D1D1B;stroke-width:1.8552;}
	.st55{fill:none;stroke:#5BF4C1;stroke-width:3.8152;stroke-miterlimit:10;}
	.st56{fill:#3BE9AA;}
	.st57{fill:#FFFFFF;stroke:#1D1D1B;stroke-width:1.9637;stroke-miterlimit:10;}
	.st58{fill:none;stroke:#000000;stroke-width:1.9637;}
	.st59{fill:#3BE9AA;stroke:#1D1D1B;stroke-width:3.0555;stroke-miterlimit:10;}
	.st60{fill:#3BE9AA;stroke:#1D1D1B;stroke-width:3.1736;stroke-miterlimit:10;}
	.st61{fill:#5BF4C1;stroke:#1D1D1B;stroke-width:2.015;stroke-miterlimit:10;}
	.st62{fill:#5BF4C1;stroke:#1D1D1B;stroke-width:2.0929;stroke-miterlimit:10;}
	.st63{fill:none;stroke:#FFFFFF;stroke-width:0.4738;stroke-miterlimit:10;}
	.st64{fill:#5BF3C0;stroke:#5BF3C0;stroke-width:1.6571;stroke-miterlimit:10;}
	.st65{fill:#FFFFFF;stroke:#1D1D1B;stroke-width:1.2416;stroke-miterlimit:10;}
	.st66{fill:none;stroke:#000000;stroke-width:1.2416;}
	.st67{fill:#1D1D1B;stroke:#1D1D1B;stroke-width:2.6696;stroke-miterlimit:10;}
	.st68{fill:#1D1D1B;stroke:#1D1D1B;stroke-width:2.3723;stroke-miterlimit:10;}
	.st69{fill:none;stroke:#FFFFFF;stroke-width:1.0272;stroke-miterlimit:10;}
	.st70{fill:#221E1B;}
	.st71{fill:#1D1D1B;stroke:#1D1D1B;stroke-width:0.4;stroke-miterlimit:10;}
	.st72{fill:#1D1D1B;stroke:#1D1D1B;stroke-width:2.1533;stroke-miterlimit:10;}
	.st73{fill:#A6A6A6;}
	.st74{fill:#1D1D1B;stroke:#1D1D1B;stroke-width:2.1646;stroke-miterlimit:10;}
	.st75{fill:#1D1D1B;stroke:#1D1D1B;stroke-width:1.3359;stroke-miterlimit:10;}
	.st76{fill:#1D1D1B;stroke:#1D1D1B;stroke-width:1.2193;stroke-miterlimit:10;}
	.st77{fill:none;stroke:#5BF4C1;stroke-width:0.9225;stroke-miterlimit:10;}
	.st78{fill:#1D1D1B;stroke:#1D1D1B;stroke-width:0.3607;stroke-miterlimit:10;}
	.st79{fill:#1D1D1B;stroke:#1D1D1B;stroke-width:5.8794;stroke-miterlimit:10;}
	.st80{fill:#1D1D1B;stroke:#1D1D1B;stroke-width:6.0309;stroke-miterlimit:10;}
	.st81{fill:none;stroke:#5BF4C1;stroke-width:1.8976;stroke-miterlimit:10;}
	.st82{fill:none;stroke:#5BF4C1;stroke-width:1.7061;stroke-miterlimit:10;}
	.st83{fill:#24EDAA;}
	.st84{fill:#FFFFFF;stroke:#FFFFFF;stroke-width:2;stroke-miterlimit:10;}
	.st85{fill:#1D1D1B;stroke:#1D1D1B;stroke-width:1.636;stroke-miterlimit:10;}
</style>
<g>
	<path class="st85" d="M59.4,26.8C55.8,16.6,46,9.3,34.6,9.3c-11.4,0-21.2,7.3-24.9,17.5c0,0.1-0.1,0.2-0.1,0.2
		c-1,2.7-1.5,5.7-1.5,8.7c0,3,0.5,6,1.5,8.7c0,0.1,0.1,0.2,0.1,0.2c3.7,10.2,13.4,17.5,24.9,17.5c11.4,0,21.2-7.3,24.9-17.5
		c0-0.1,0.1-0.2,0.1-0.2c1-2.7,1.5-5.7,1.5-8.7c0-3-0.5-6-1.5-8.7C59.5,26.9,59.5,26.9,59.4,26.8z M54.8,25.6H43.9
		c-0.7-4.6-1.8-8.8-3.5-11.8C46.8,15.6,52,19.9,54.8,25.6z M40.8,35.7c0,2.2-0.1,4.3-0.3,6.3h-12c-0.2-2-0.3-4.1-0.3-6.3
		c0-2.2,0.1-4.3,0.3-6.3h12C40.8,31.5,40.8,33.6,40.8,35.7z M30.6,19c1.4-4.1,3-5.9,4-5.9c1,0,2.6,1.8,4,5.9c0.7,2,1.2,4.2,1.6,6.7
		H29C29.4,23.2,29.9,20.9,30.6,19z M28.6,13.9c-1.6,3-2.8,7.1-3.5,11.8H14.3C17.1,19.9,22.4,15.6,28.6,13.9z M11.9,35.7
		c0-2.2,0.3-4.3,0.9-6.3h11.9c-0.2,2.1-0.3,4.2-0.3,6.3c0,2.1,0.1,4.2,0.3,6.3H12.8C12.2,40,11.9,37.9,11.9,35.7z M14.3,45.8h10.9
		c0.7,4.6,1.8,8.8,3.5,11.8C22.4,55.9,17.1,51.5,14.3,45.8z M38.6,52.5c-1.4,4.1-3,5.9-4,5.9c-1,0-2.6-1.8-4-5.9
		c-0.7-2-1.2-4.2-1.6-6.7h11.1C39.7,48.2,39.2,50.5,38.6,52.5z M40.5,57.6c1.6-3,2.8-7.1,3.5-11.8h10.9C52,51.5,46.8,55.9,40.5,57.6
		z M56.3,42H44.4c0.2-2.1,0.3-4.2,0.3-6.3c0-2.1-0.1-4.2-0.3-6.3h11.9c0.6,2,0.9,4.1,0.9,6.3C57.2,37.9,56.9,40,56.3,42z"/>
</g>
</svg>
