<?xml version="1.0" encoding="utf-8"?>
<!-- Generator: Adobe Illustrator 23.1.1, SVG Export Plug-In . SVG Version: 6.00 Build 0)  -->
<svg version="1.1" id="Calque_1" xmlns="http://www.w3.org/2000/svg" xmlns:xlink="http://www.w3.org/1999/xlink" x="0px" y="0px"
	 viewBox="0 0 131 152" style="enable-background:new 0 0 131 152;" xml:space="preserve">
<style type="text/css">
	.st0{fill:#5BF4C1;}
	.st1{fill:#FFFFFF;}
	.st2{fill:#4F280E;}
	.st3{fill:#723F1C;}
	.st4{fill:#FFFFFF;stroke:#1D1D1B;stroke-width:1.4727;stroke-miterlimit:10;}
	.st5{fill:none;stroke:#000000;stroke-width:1.4727;}
	.st6{fill:#1D1D1B;}
	.st7{fill:#1D1D1B;stroke:#AAAAAA;stroke-width:2.0923;stroke-miterlimit:10;}
	.st8{fill:#FFFFFF;stroke:#1D1D1B;stroke-width:4.1662;}
	.st9{fill:#5BF4C1;stroke:#1D1D1B;stroke-width:4.1662;}
	.st10{fill:#FFFFFF;stroke:#1D1D1B;stroke-width:1.4058;}
	.st11{fill:#5BF4C1;stroke:#1D1D1B;stroke-width:1.4058;}
	.st12{fill:none;stroke:#000000;stroke-width:15.6249;}
	.st13{fill:none;stroke:#000000;stroke-width:14.5284;}
	.st14{fill:#FFFFFF;stroke:#000000;stroke-width:15.6249;}
	.st15{fill:none;stroke:#000000;stroke-width:3.9697;}
	.st16{fill:none;stroke:#000000;stroke-width:3.6912;}
	.st17{fill:#FFFFFF;stroke:#1D1D1B;stroke-width:4.4646;stroke-miterlimit:10;}
	.st18{fill:none;stroke:#000000;stroke-width:4.3077;}
	.st19{fill:none;stroke:#000000;stroke-width:4.0054;}
	.st20{fill:#FFFFFF;stroke:#1D1D1B;stroke-width:3.8315;stroke-miterlimit:10;}
	.st21{fill:#FFFFFF;stroke:#1D1D1B;stroke-width:3.9796;stroke-miterlimit:10;}
	.st22{fill:none;stroke:#5BF4C1;stroke-width:1.9109;stroke-miterlimit:10;}
	.st23{fill:none;stroke:#5BF4C1;stroke-width:1.3063;stroke-miterlimit:10;}
	.st24{fill:none;stroke:#1D1D1B;stroke-width:0.9707;stroke-miterlimit:10;}
	.st25{fill:none;stroke:#1D1D1B;stroke-width:1.5486;stroke-miterlimit:10;}
	.st26{fill:#1D1D1B;stroke:#1D1D1B;stroke-width:5.9245;stroke-miterlimit:10;}
	.st27{fill:#FFFFFF;stroke:#1D1D1B;stroke-width:7.6936;stroke-miterlimit:10;}
	.st28{fill:#FFFFFF;stroke:#1D1D1B;stroke-width:7.9909;stroke-miterlimit:10;}
	.st29{fill:none;stroke:#5BF4C1;stroke-width:2;stroke-miterlimit:10;}
	.st30{fill:#BABABA;}
	.st31{fill-rule:evenodd;clip-rule:evenodd;fill:#FFFFFF;}
	.st32{fill-rule:evenodd;clip-rule:evenodd;fill:#221E1B;}
	.st33{fill:none;stroke:#1D1D1B;stroke-width:2.152;stroke-miterlimit:10;}
	.st34{fill:none;stroke:#FFFFFF;stroke-width:1.3572;stroke-miterlimit:10;}
	.st35{fill:none;stroke:#1D1D1B;stroke-width:1.2856;stroke-miterlimit:10;}
	.st36{fill:none;stroke:#FFFFFF;stroke-width:0.6924;stroke-miterlimit:10;}
	.st37{fill:#99613A;}
	.st38{fill:#FFFFFF;stroke:#1D1D1B;stroke-width:2;stroke-miterlimit:10;}
	.st39{fill:none;stroke:#000000;stroke-width:2;}
	.st40{fill:none;stroke:#1D1D1B;stroke-width:2;stroke-miterlimit:10;}
	.st41{fill:none;stroke:#FFFFFF;stroke-width:0.5312;stroke-miterlimit:10;}
	.st42{fill:none;stroke:#1D1D1B;stroke-width:1.2808;stroke-miterlimit:10;}
	.st43{fill:none;stroke:#FFFFFF;stroke-width:0.5726;stroke-miterlimit:10;}
	.st44{fill:none;stroke:#1D1D1B;stroke-width:1.587;stroke-miterlimit:10;}
	.st45{fill:none;stroke:#FFFFFF;stroke-width:0.6838;stroke-miterlimit:10;}
	.st46{fill:#FFFFFF;stroke:#1D1D1B;stroke-width:2.5736;stroke-miterlimit:10;}
	.st47{fill:none;stroke:#000000;stroke-width:2.5736;}
	.st48{fill:#FFFFFF;stroke:#1D1D1B;stroke-width:2.0481;stroke-miterlimit:10;}
	.st49{fill:none;stroke:#000000;stroke-width:2.0481;}
	.st50{fill:#FFFFFF;stroke:#1D1D1B;stroke-width:2.2091;stroke-miterlimit:10;}
	.st51{fill:none;stroke:#000000;stroke-width:2.2091;}
	.st52{fill:none;stroke:#1D1D1B;stroke-width:1.9952;}
	.st53{fill:none;stroke:#1D1D1B;stroke-width:1.8552;}
	.st54{fill:none;stroke:#5BF4C1;stroke-width:3.8152;stroke-miterlimit:10;}
	.st55{fill:#3BE9AA;}
	.st56{fill:#FFFFFF;stroke:#1D1D1B;stroke-width:1.9637;stroke-miterlimit:10;}
	.st57{fill:none;stroke:#000000;stroke-width:1.9637;}
	.st58{fill:#3BE9AA;stroke:#1D1D1B;stroke-width:3.0555;stroke-miterlimit:10;}
	.st59{fill:#3BE9AA;stroke:#1D1D1B;stroke-width:3.1736;stroke-miterlimit:10;}
	.st60{fill:#5BF4C1;stroke:#1D1D1B;stroke-width:2.015;stroke-miterlimit:10;}
	.st61{fill:#5BF4C1;stroke:#1D1D1B;stroke-width:2.0929;stroke-miterlimit:10;}
	.st62{fill:none;stroke:#FFFFFF;stroke-width:0.4738;stroke-miterlimit:10;}
	.st63{fill:#5BF3C0;stroke:#5BF3C0;stroke-width:1.6571;stroke-miterlimit:10;}
	.st64{fill:#FFFFFF;stroke:#1D1D1B;stroke-width:1.2545;stroke-miterlimit:10;}
	.st65{fill:none;stroke:#000000;stroke-width:1.2545;}
	.st66{fill:#1D1D1B;stroke:#1D1D1B;stroke-width:2.6696;stroke-miterlimit:10;}
	.st67{fill:#1D1D1B;stroke:#1D1D1B;stroke-width:2.3723;stroke-miterlimit:10;}
	.st68{fill:none;stroke:#FFFFFF;stroke-width:1.0272;stroke-miterlimit:10;}
	.st69{fill:#221E1B;}
	.st70{fill:#1D1D1B;stroke:#1D1D1B;stroke-width:0.4;stroke-miterlimit:10;}
	.st71{fill:#1D1D1B;stroke:#1D1D1B;stroke-width:2.1533;stroke-miterlimit:10;}
	.st72{fill:#A6A6A6;}
	.st73{fill:#1D1D1B;stroke:#1D1D1B;stroke-width:2.1646;stroke-miterlimit:10;}
	.st74{fill:#1D1D1B;stroke:#1D1D1B;stroke-width:1.3359;stroke-miterlimit:10;}
	.st75{fill:#1D1D1B;stroke:#1D1D1B;stroke-width:1.2193;stroke-miterlimit:10;}
	.st76{fill:none;stroke:#5BF4C1;stroke-width:0.9225;stroke-miterlimit:10;}
	.st77{fill:#1D1D1B;stroke:#1D1D1B;stroke-width:0.3607;stroke-miterlimit:10;}
	.st78{fill:#1D1D1B;stroke:#1D1D1B;stroke-width:5.8794;stroke-miterlimit:10;}
	.st79{fill:#1D1D1B;stroke:#1D1D1B;stroke-width:6.0309;stroke-miterlimit:10;}
	.st80{fill:none;stroke:#5BF4C1;stroke-width:1.8976;stroke-miterlimit:10;}
	.st81{fill:none;stroke:#5BF4C1;stroke-width:1.7061;stroke-miterlimit:10;}
	.st82{fill:none;stroke:#1D1D1B;stroke-width:2.6086;stroke-miterlimit:10;}
	.st83{fill:#24EDAA;}
</style>
<g>
	<path class="st83" d="M34.2,119.5v2.6h4.6v2.3h-4.6v4.6h-2.8v-11.9H39v2.3H34.2z"/>
	<path class="st83" d="M49.9,129.1l-0.7-2.7h-2.7l-0.7,2.7h-2.9l3.2-11.9h3.5l3.2,11.9H49.9z M47.1,124h1.6l-0.8-3.3L47.1,124z"/>
	<path class="st83" d="M63.3,129.1l-3.3-7.3v7.3h-2.6v-11.9h2.7l3.3,7.3v-7.3h2.6v11.9H63.3z"/>
	<path class="st83" d="M78.3,129.1l-3.3-7.3v7.3h-2.6v-11.9h2.7l3.3,7.3v-7.3H81v11.9H78.3z"/>
	<path class="st83" d="M92.3,123.8v5.3h-2.8v-5.3l-3.8-6.6H89l1.9,4l1.9-4h3.2L92.3,123.8z"/>
	<path class="st83" d="M18.1,148.3h-3.8v-11.9h3.8c2.4,0,3.8,1.3,3.8,3.4c0,0.8-0.2,1.7-0.9,2.2c0.9,0.7,1.3,1.5,1.3,2.6
		C22.3,146.6,21.2,148.3,18.1,148.3z M18.1,138.8H17v2.3h1c0.8,0,1.1-0.7,1.1-1.2C19.2,139.4,18.9,138.8,18.1,138.8z M18,143.5h-1
		v2.5h1c1,0,1.5-0.5,1.5-1.3C19.6,143.9,19,143.5,18,143.5z"/>
	<path class="st83" d="M31.4,148.5c-2.4,0-4.5-1.9-4.5-6.1c0-4.2,2.2-6.1,4.5-6.1c2.4,0,4.6,1.9,4.6,6.1
		C36,146.7,33.8,148.5,31.4,148.5z M31.4,138.7c-0.9,0-1.8,1.1-1.8,3.7s0.9,3.7,1.8,3.7s1.8-1.1,1.8-3.7S32.3,138.7,31.4,138.7z"/>
	<path class="st83" d="M48.9,143.6c0,3.4-1.7,4.9-4.2,4.9s-4.2-1.6-4.2-4.9v-7.1h2.7v7.1c0,2.2,0.8,2.6,1.5,2.6
		c0.7,0,1.5-0.4,1.5-2.6v-7.1h2.7V143.6z"/>
	<path class="st83" d="M56.8,138.8v2.6h4.4v2.3h-4.4v4.6h-2.7v-11.9h7.4v2.3H56.8z"/>
	<path class="st83" d="M69.4,138.8v2.6h4.4v2.3h-4.4v4.6h-2.7v-11.9H74v2.3H69.4z"/>
	<path class="st83" d="M78.8,148.3v-2.2h2.3v-7.5h-2.3v-2.2h7.4v2.2h-2.3v7.5h2.3v2.2H78.8z"/>
	<path class="st83" d="M91.9,148.3v-11.9h7.2v2.3h-4.5v2.4h4.3v2.3h-4.3v2.5h4.6v2.3H91.9z"/>
	<path class="st83" d="M111.2,143.8l1.1,4.6h-2.9l-0.9-4.1h-1.5v4.1h-2.7v-11.9h4.5c2.9,0,4,1.7,4,3.9
		C112.9,141.9,112.4,143.1,111.2,143.8z M108.7,138.8h-1.6v3.1h1.6c1.1,0,1.4-0.8,1.4-1.5C110.1,139.6,109.9,138.8,108.7,138.8z"/>
</g>
<g>
	<circle class="st46" cx="64" cy="51.6" r="47.2"/>
	<g>
		<circle class="st1" cx="54.5" cy="81.6" r="6.5"/>
		<rect x="47.7" y="30.5" class="st1" width="12.5" height="40"/>
		<rect x="60.1" y="41.6" class="st83" width="20.2" height="11"/>
		<rect x="47.7" y="18.8" class="st83" width="34.2" height="11"/>
		<g>
			<path class="st47" d="M60.3,29.7l0,12.2l20.3,0l0,11l-20.3,0l0,16.8l-11.6,0l0-51l33.1,0l0,11L60.3,29.7z"/>
		</g>
		<circle class="st47" cx="54.4" cy="82" r="6.5"/>
		<line class="st47" x1="61.5" y1="29.7" x2="47.8" y2="29.7"/>
		<line class="st47" x1="60.3" y1="54.6" x2="60.3" y2="40.9"/>
	</g>
</g>
</svg>
