<svg id="Calque_1" data-name="Calque 1" xmlns="http://www.w3.org/2000/svg" viewBox="0 0 70 70"><defs><style>.cls-1{fill:none;stroke:#5bf4c1;stroke-miterlimit:10;stroke-width:3.82px;}</style></defs><title>LogoLove</title><path class="cls-1" d="M54,13.85a14.74,14.74,0,0,0-7.46-2,15,15,0,0,0-11.86,5.93,15.1,15.1,0,0,0-11.89-5.93,14.7,14.7,0,0,0-7.44,2,16.56,16.56,0,0,0-8,14.35,17,17,0,0,0,.76,5.05c2.65,12.64,26.55,28.58,26.55,28.58S58.58,45.89,61.24,33.25A17,17,0,0,0,62,28.2,16.58,16.58,0,0,0,54,13.85Z"/></svg>