<?xml version="1.0" encoding="utf-8"?>
<!-- Generator: Adobe Illustrator 23.1.1, SVG Export Plug-In . SVG Version: 6.00 Build 0)  -->
<svg version="1.1" id="Calque_1" xmlns="http://www.w3.org/2000/svg" xmlns:xlink="http://www.w3.org/1999/xlink" x="0px" y="0px"
	 viewBox="0 0 229 96" style="enable-background:new 0 0 229 96;" xml:space="preserve">
<style type="text/css">
	.st0{fill:#FFFFFF;stroke:#000000;stroke-width:1.6403;stroke-miterlimit:10;}
	.st1{fill:#08F8D5;}
	.st2{clip-path:url(#SVGID_2_);}
	.st3{fill:#5BF3C0;}
	.st4{fill:#FFFFFF;}
	.st5{fill:#4F280E;}
	.st6{fill:#723F1C;}
	.st7{fill:#FFFFFF;stroke:#1D1D1B;stroke-width:1.4727;stroke-miterlimit:10;}
	.st8{fill:none;stroke:#000000;stroke-width:1.4727;}
	.st9{fill:#1D1D1B;}
	.st10{fill:#1D1D1B;stroke:#A9A9A9;stroke-width:2.0923;stroke-miterlimit:10;}
	.st11{fill:#FFFFFF;stroke:#1D1D1B;stroke-width:4.1662;}
	.st12{fill:#5BF3C0;stroke:#1D1D1B;stroke-width:4.1662;}
	.st13{fill:#FFFFFF;stroke:#1D1D1B;stroke-width:1.4058;}
	.st14{fill:#5BF3C0;stroke:#1D1D1B;stroke-width:1.4058;}
	.st15{fill:none;stroke:#000000;stroke-width:15.6249;}
	.st16{fill:none;stroke:#000000;stroke-width:14.5284;}
	.st17{fill:#FFFFFF;stroke:#000000;stroke-width:15.6249;}
	.st18{fill:none;stroke:#000000;stroke-width:3.9697;}
	.st19{fill:none;stroke:#000000;stroke-width:3.6912;}
	.st20{fill:#FFFFFF;stroke:#1D1D1B;stroke-width:4.4646;stroke-miterlimit:10;}
	.st21{fill:none;stroke:#000000;stroke-width:4.3077;}
	.st22{fill:none;stroke:#000000;stroke-width:4.0054;}
	.st23{fill:#FFFFFF;stroke:#1D1D1B;stroke-width:3.8315;stroke-miterlimit:10;}
	.st24{fill:#FFFFFF;stroke:#1D1D1B;stroke-width:3.9796;stroke-miterlimit:10;}
	.st25{fill:none;stroke:#5BF3C0;stroke-width:1.9109;stroke-miterlimit:10;}
	.st26{fill:none;stroke:#5BF3C0;stroke-width:1.3063;stroke-miterlimit:10;}
	.st27{fill:none;stroke:#1D1D1B;stroke-width:0.9707;stroke-miterlimit:10;}
	.st28{fill:none;stroke:#1D1D1B;stroke-width:1.5486;stroke-miterlimit:10;}
	.st29{fill:#1D1D1B;stroke:#1D1D1B;stroke-width:5.9245;stroke-miterlimit:10;}
	.st30{fill:#FFFFFF;stroke:#1D1D1B;stroke-width:7.6936;stroke-miterlimit:10;}
	.st31{fill:#FFFFFF;stroke:#1D1D1B;stroke-width:7.9909;stroke-miterlimit:10;}
	.st32{fill:none;stroke:#5BF3C0;stroke-width:2;stroke-miterlimit:10;}
	.st33{fill:#B9B9B9;}
	.st34{fill:#F4F4F1;}
	.st35{fill-rule:evenodd;clip-rule:evenodd;fill:#FFFFFF;}
	.st36{fill-rule:evenodd;clip-rule:evenodd;fill:#221E1B;}
	.st37{fill:none;stroke:#1D1D1B;stroke-width:2.152;stroke-miterlimit:10;}
	.st38{fill:none;stroke:#FFFFFF;stroke-width:1.3572;stroke-miterlimit:10;}
	.st39{fill:none;stroke:#1D1D1B;stroke-width:1.2856;stroke-miterlimit:10;}
	.st40{fill:none;stroke:#FFFFFF;stroke-width:0.6924;stroke-miterlimit:10;}
	.st41{fill:#FFFFFF;stroke:#1D1D1B;stroke-width:2;stroke-miterlimit:10;}
	.st42{fill:none;stroke:#000000;stroke-width:2;}
	.st43{fill:none;stroke:#1D1D1B;stroke-width:1.7586;stroke-miterlimit:10;}
	.st44{fill:none;stroke:#1D1D1B;stroke-width:2;stroke-miterlimit:10;}
	.st45{fill:none;stroke:#FFFFFF;stroke-width:0.5312;stroke-miterlimit:10;}
	.st46{fill:#98613A;}
	.st47{fill:#592B1E;}
	.st48{fill:none;stroke:#1D1D1B;stroke-width:1.2808;stroke-miterlimit:10;}
	.st49{fill:none;stroke:#FFFFFF;stroke-width:0.5726;stroke-miterlimit:10;}
	.st50{fill:none;stroke:#1D1D1B;stroke-width:1.587;stroke-miterlimit:10;}
	.st51{fill:none;stroke:#FFFFFF;stroke-width:0.6838;stroke-miterlimit:10;}
	.st52{fill:#FFFFFF;stroke:#1D1D1B;stroke-width:2.5736;stroke-miterlimit:10;}
	.st53{fill:none;stroke:#000000;stroke-width:2.5736;}
	.st54{fill:#FFFFFF;stroke:#1D1D1B;stroke-width:2.0481;stroke-miterlimit:10;}
	.st55{fill:none;stroke:#000000;stroke-width:2.0481;}
	.st56{fill:#FFFFFF;stroke:#1D1D1B;stroke-width:2.2091;stroke-miterlimit:10;}
	.st57{fill:none;stroke:#000000;stroke-width:2.2091;}
	.st58{fill:none;stroke:#1D1D1B;stroke-width:1.9952;}
	.st59{fill:none;stroke:#1D1D1B;stroke-width:1.8552;}
	.st60{fill:none;stroke:#5BF3C0;stroke-width:3.8152;stroke-miterlimit:10;}
	.st61{fill:#3BE8A9;}
	.st62{fill:#FFFFFF;stroke:#1D1D1B;stroke-width:1.9637;stroke-miterlimit:10;}
	.st63{fill:none;stroke:#000000;stroke-width:1.9637;}
	.st64{fill:#3BE8A9;stroke:#1D1D1B;stroke-width:3.0555;stroke-miterlimit:10;}
	.st65{fill:#3BE8A9;stroke:#1D1D1B;stroke-width:3.1736;stroke-miterlimit:10;}
	.st66{fill:#5BF3C0;stroke:#1D1D1B;stroke-width:2.015;stroke-miterlimit:10;}
	.st67{fill:#5BF3C0;stroke:#1D1D1B;stroke-width:2.0929;stroke-miterlimit:10;}
	.st68{fill:none;stroke:#FFFFFF;stroke-width:0.4738;stroke-miterlimit:10;}
	.st69{fill:#5BF2BF;stroke:#5BF2BF;stroke-width:1.6571;stroke-miterlimit:10;}
	.st70{fill:#FFFFFF;stroke:#1D1D1B;stroke-width:1.2416;stroke-miterlimit:10;}
	.st71{fill:none;stroke:#000000;stroke-width:1.2416;}
	.st72{fill:#1D1D1B;stroke:#1D1D1B;stroke-width:2.6696;stroke-miterlimit:10;}
	.st73{fill:#1D1D1B;stroke:#1D1D1B;stroke-width:2.3723;stroke-miterlimit:10;}
	.st74{fill:none;stroke:#FFFFFF;stroke-width:1.0272;stroke-miterlimit:10;}
	.st75{fill:#221E1B;}
	.st76{fill:#1D1D1B;stroke:#1D1D1B;stroke-width:0.4;stroke-miterlimit:10;}
	.st77{fill:#1D1D1B;stroke:#1D1D1B;stroke-width:2.1533;stroke-miterlimit:10;}
	.st78{fill:#A5A5A5;}
	.st79{fill:#1D1D1B;stroke:#1D1D1B;stroke-width:2.1646;stroke-miterlimit:10;}
	.st80{fill:#1D1D1B;stroke:#1D1D1B;stroke-width:1.3359;stroke-miterlimit:10;}
	.st81{fill:#1D1D1B;stroke:#1D1D1B;stroke-width:1.2193;stroke-miterlimit:10;}
	.st82{fill:none;stroke:#5BF3C0;stroke-width:0.9225;stroke-miterlimit:10;}
	.st83{fill:#1D1D1B;stroke:#1D1D1B;stroke-width:0.3607;stroke-miterlimit:10;}
	.st84{fill:#1D1D1B;stroke:#1D1D1B;stroke-width:5.8794;stroke-miterlimit:10;}
	.st85{fill:#1D1D1B;stroke:#1D1D1B;stroke-width:6.0309;stroke-miterlimit:10;}
	.st86{fill:none;stroke:#5BF3C0;stroke-width:1.8976;stroke-miterlimit:10;}
	.st87{fill:none;stroke:#5BF3C0;stroke-width:1.7061;stroke-miterlimit:10;}
	.st88{fill:#24ECA9;}
	.st89{fill:#FFFFFF;stroke:#FFFFFF;stroke-width:2;stroke-miterlimit:10;}
	.st90{fill:#1D1D1B;stroke:#1D1D1B;stroke-width:1.636;stroke-miterlimit:10;}
	.st91{fill:none;}
	.st92{clip-path:url(#SVGID_18_);}
	.st93{fill:#00A0B1;}
	.st94{fill:#02292A;}
	.st95{fill:#012A2C;}
	.st96{clip-path:url(#SVGID_20_);}
	.st97{clip-path:url(#SVGID_24_);}
	.st98{fill:#FFC09E;}
	.st99{fill:#FF6A48;}
	.st100{fill:none;stroke:#2A4A5B;stroke-width:3.1645;stroke-miterlimit:10;}
	.st101{fill:#98B8C8;}
	.st102{fill:#2A4A5B;}
	.st103{clip-path:url(#SVGID_32_);}
	.st104{clip-path:url(#SVGID_32_);fill:none;}
	.st105{clip-path:url(#SVGID_34_);}
	.st106{fill:none;stroke:#2A4A5B;stroke-width:2.5288;stroke-miterlimit:10;}
	.st107{stroke:#FFFFFF;stroke-width:0.6752;stroke-miterlimit:10;}
	.st108{stroke:#FFFFFF;stroke-width:0.6677;stroke-miterlimit:10;}
	.st109{stroke:#FFFFFF;stroke-width:0.6768;stroke-miterlimit:10;}
	.st110{fill:#08F8D5;stroke:#070707;stroke-width:3.629;stroke-miterlimit:10;}
	.st111{fill:#FFFFFF;stroke:#000000;stroke-width:3.8453;stroke-miterlimit:10;}
	.st112{fill:#08F8D5;stroke:#070707;stroke-width:2.4301;stroke-miterlimit:10;}
	.st113{fill:#FFFFFF;stroke:#000000;stroke-width:2.5748;stroke-miterlimit:10;}
	.st114{fill:#A03DF8;stroke:#070707;stroke-width:2.4301;stroke-miterlimit:10;}
	.st115{fill:#364EFF;stroke:#070707;stroke-width:2.4301;stroke-miterlimit:10;}
	.st116{fill:#FFFFFF;stroke:#000000;stroke-width:2.3307;stroke-miterlimit:10;}
	.st117{fill:#FFFFFF;stroke:#000000;stroke-width:2.071;stroke-miterlimit:10;}
	.st118{fill:#FFA376;stroke:#070707;stroke-width:2.4301;stroke-miterlimit:10;}
	.st119{fill:#FFFFFF;stroke:#000000;stroke-width:2.8208;stroke-miterlimit:10;}
	.st120{clip-path:url(#SVGID_40_);}
	.st121{clip-path:url(#SVGID_44_);}
	.st122{clip-path:url(#SVGID_44_);fill:none;}
	.st123{clip-path:url(#SVGID_45_);}
	.st124{fill:#FFFFFF;stroke:#1D1D1B;stroke-width:2.2159;stroke-miterlimit:10;}
	.st125{fill:none;stroke:#000000;stroke-width:2.2159;}
</style>
<g>
	<path class="st88" d="M111.3,35.3v2.9h5.2v2.7h-5.2v5.3h-3.2V32.6h8.8v2.7H111.3z"/>
	<path class="st88" d="M129.3,46.2l-0.8-3h-3l-0.8,3h-3.3l3.7-13.6h4.1l3.7,13.6H129.3z M126,40.4h1.8l-0.9-3.8L126,40.4z"/>
	<path class="st88" d="M144.7,46.2l-3.8-8.3v8.3h-3V32.6h3.1l3.8,8.3v-8.3h3v13.6H144.7z"/>
	<path class="st88" d="M161.8,46.2l-3.8-8.3v8.3h-3V32.6h3.1l3.8,8.3v-8.3h3v13.6H161.8z"/>
	<path class="st88" d="M177.9,40.1v6h-3.2v-6l-4.3-7.5h3.7l2.2,4.6l2.2-4.6h3.7L177.9,40.1z"/>
	<path class="st88" d="M112.1,68.3h-4.4V54.7h4.4c2.8,0,4.3,1.5,4.3,3.9c0,0.9-0.2,1.9-1,2.5c1.1,0.8,1.5,1.7,1.5,3
		C117,66.3,115.6,68.3,112.1,68.3z M112.1,57.4h-1.2v2.7h1.2c1,0,1.3-0.8,1.3-1.4C113.3,58,113.1,57.4,112.1,57.4z M112,62.7h-1.2
		v2.9h1.2c1.1,0,1.8-0.5,1.8-1.4C113.8,63.2,113.1,62.7,112,62.7z"/>
	<path class="st88" d="M127.3,68.5c-2.7,0-5.2-2.1-5.2-7s2.5-7,5.2-7s5.2,2.1,5.2,7S130.1,68.5,127.3,68.5z M127.3,57.2
		c-1.1,0-2,1.2-2,4.2s1,4.2,2,4.2s2-1.2,2-4.2S128.4,57.2,127.3,57.2z"/>
	<path class="st88" d="M147.4,62.8c0,3.8-2,5.7-4.9,5.7c-2.9,0-4.9-1.8-4.9-5.7v-8.1h3.1v8.1c0,2.5,1,3,1.8,3s1.8-0.4,1.8-3v-8.1
		h3.1V62.8z"/>
	<path class="st88" d="M156.4,57.4v2.9h5V63h-5v5.3h-3.1V54.7h8.4v2.7H156.4z"/>
	<path class="st88" d="M170.8,57.4v2.9h5V63h-5v5.3h-3.1V54.7h8.4v2.7H170.8z"/>
	<path class="st88" d="M181.7,68.3v-2.5h2.7v-8.6h-2.7v-2.5h8.5v2.5h-2.7v8.6h2.7v2.5H181.7z"/>
	<path class="st88" d="M196.6,68.3V54.7h8.3v2.7h-5.2v2.7h4.9v2.7h-4.9v2.9h5.2v2.7H196.6z"/>
	<path class="st88" d="M218.8,63l1.3,5.2h-3.3l-1-4.7h-1.7v4.7H211V54.7h5.1c3.4,0,4.6,1.9,4.6,4.4C220.7,60.9,220.2,62.3,218.8,63z
		 M215.9,57.4h-1.9v3.6h1.9c1.3,0,1.6-0.9,1.6-1.8S217.2,57.4,215.9,57.4z"/>
</g>
<circle class="st124" cx="50.6" cy="48.8" r="40.6"/>
<g>
	<circle class="st4" cx="42.4" cy="74.7" r="5.6"/>
	<rect x="36.6" y="30.7" class="st4" width="10.8" height="34.5"/>
	<rect x="47.3" y="40.2" class="st88" width="17.4" height="9.4"/>
	<rect x="36.6" y="20.5" class="st88" width="29.5" height="9.4"/>
	<g>
		<path class="st125" d="M47.4,29.9v10.5h17.4v9.5H47.4v14.4h-10V20.4h28.5v9.5H47.4z"/>
	</g>
	<circle class="st125" cx="42.3" cy="74.9" r="5.6"/>
	<line class="st125" x1="48.4" y1="29.9" x2="36.6" y2="29.9"/>
	<line class="st125" x1="47.4" y1="51.4" x2="47.4" y2="39.6"/>
</g>
</svg>
