<svg id="Calque_1" data-name="Calque 1" xmlns="http://www.w3.org/2000/svg" viewBox="0 0 131 152"><defs><style>.cls-1{fill:#5bf4c1;}.cls-2,.cls-3{fill:#fff;}.cls-2{stroke:#1d1d1b;stroke-miterlimit:10;}.cls-2,.cls-4{stroke-width:2.57px;}.cls-4{fill:none;stroke:#000;}</style></defs><title>LogoFB</title><path class="cls-1" d="M40.15,119.49v2.18H44v2H40.15v3.92H37.77V117.51h6.5v2Z"/><path class="cls-1" d="M53.53,127.57l-.61-2.26H50.65L50,127.57H47.56l2.72-10.06h3L56,127.57Zm-2.43-4.26h1.37l-.69-2.83Z"/><path class="cls-1" d="M64.92,127.57l-2.8-6.18v6.18H59.89V117.51h2.3L65,123.69v-6.18h2.23v10.06Z"/><path class="cls-1" d="M77.62,127.57l-2.8-6.18v6.18H72.59V117.51h2.3l2.81,6.18v-6.18h2.23v10.06Z"/><path class="cls-1" d="M89.53,123.1v4.47H87.15V123.1L84,117.51H86.7l1.64,3.39L90,117.51h2.74Z"/><path class="cls-1" d="M26.52,144H23.28V133.89h3.26c2.06,0,3.2,1.08,3.2,2.9a2.34,2.34,0,0,1-.77,1.89,2.45,2.45,0,0,1,1.11,2.23C30.08,142.52,29.12,144,26.52,144Zm-.05-8.07h-.91v2h.88a.92.92,0,0,0,.95-1C27.39,136.35,27.2,135.89,26.47,135.89Zm0,4h-.87V142h.87c.84,0,1.3-.4,1.3-1.07S27.26,139.84,26.43,139.84Z"/><path class="cls-1" d="M37.79,144.11c-2,0-3.87-1.58-3.87-5.19s1.85-5.18,3.87-5.18,3.86,1.58,3.86,5.18S39.81,144.11,37.79,144.11Zm0-8.33c-.79,0-1.52.91-1.52,3.14s.73,3.15,1.52,3.15,1.51-.92,1.51-3.15S38.57,135.78,37.79,135.78Z"/><path class="cls-1" d="M52.68,139.9c0,2.85-1.45,4.2-3.59,4.2s-3.6-1.35-3.6-4.2v-6h2.29v6c0,1.89.71,2.2,1.31,2.2s1.31-.31,1.31-2.2v-6h2.28Z"/><path class="cls-1" d="M59.33,135.87v2.19h3.73v2H59.33V144H57V133.89h6.25v2Z"/><path class="cls-1" d="M70,135.87v2.19h3.73v2H70V144H67.75V133.89H74v2Z"/><path class="cls-1" d="M78.07,144v-1.83h2v-6.41h-2v-1.83h6.27v1.83h-2v6.41h2V144Z"/><path class="cls-1" d="M89.16,144V133.89H95.3v2H91.45v2h3.64v2H91.45V142h3.88v2Z"/><path class="cls-1" d="M105.57,140.07l1,3.89h-2.45l-.75-3.47H102.1V144H99.81V133.89h3.8c2.5,0,3.41,1.44,3.41,3.3A3,3,0,0,1,105.57,140.07Zm-2.09-4.2H102.1v2.64h1.38c1,0,1.19-.69,1.19-1.32S104.45,135.87,103.48,135.87Z"/><circle class="cls-2" cx="65.37" cy="55.45" r="47.18"/><circle class="cls-3" cx="55.81" cy="85.49" r="6.53"/><rect class="cls-3" x="49.09" y="34.37" width="12.55" height="40.01"/><rect class="cls-1" x="61.5" y="45.46" width="20.21" height="10.96"/><rect class="cls-1" x="49.09" y="22.61" width="34.2" height="10.96"/><path class="cls-4" d="M61.62,33.51V45.67H81.88v11H61.62V73.48H50v-51H83.09v11Z"/><circle class="cls-4" cx="55.75" cy="85.8" r="6.53"/><line class="cls-4" x1="62.84" y1="33.52" x2="49.11" y2="33.52"/><line class="cls-4" x1="61.62" y1="58.46" x2="61.62" y2="44.74"/></svg>